<svg width="332" height="723" viewBox="0 0 332 723" fill="none" xmlns="http://www.w3.org/2000/svg">
<path d="M331.2 171.907H327.559V63.2898C327.559 55.0343 326.066 46.8596 323.165 39.2325C320.264 31.6055 316.012 24.6753 310.652 18.8378C305.292 13.0002 298.929 8.36967 291.926 5.21042C284.922 2.05117 277.416 0.425116 269.836 0.42511H58.5381C50.9579 0.42509 43.4518 2.05112 36.4486 5.21034C29.4453 8.36957 23.082 13.0001 17.7219 18.8376C12.3618 24.6751 8.10999 31.6053 5.20914 39.2324C2.30828 46.8594 0.815232 55.0341 0.815216 63.2896V659.172C0.815204 675.845 6.89668 691.834 17.7218 703.624C28.5469 715.413 43.2289 722.036 58.5379 722.036H269.836C285.145 722.036 299.827 715.413 310.652 703.624C321.477 691.835 327.559 675.845 327.559 659.172V249.222H331.199L331.2 171.907Z" fill="#3F3D56"/>
<path d="M315.276 63.7283V658.734C315.276 671.185 310.734 683.127 302.649 691.931C294.565 700.736 283.6 705.682 272.167 705.682H59.8464C54.1858 705.682 48.5807 704.467 43.3511 702.108C38.1216 699.748 33.37 696.29 29.3678 691.93C25.3655 687.57 22.191 682.395 20.0255 676.699C17.86 671.003 16.7458 664.898 16.7468 658.734V63.7283C16.7458 57.5635 17.86 51.4588 20.0255 45.7629C22.191 40.067 25.3655 34.8915 29.3678 30.5318C33.37 26.1721 38.1216 22.7137 43.3511 20.3541C48.5807 17.9945 54.1858 16.7798 59.8464 16.7795H85.6115C84.3411 20.1663 83.8555 23.8416 84.1974 27.4811C84.5394 31.1206 85.6985 34.6125 87.5725 37.6489C89.4465 40.6852 91.9777 43.1727 94.943 44.8919C97.9082 46.6111 101.216 47.5092 104.576 47.507H225.626C228.985 47.5089 232.293 46.6104 235.257 44.8909C238.222 43.1714 240.753 40.6836 242.626 37.6471C244.499 34.6106 245.657 31.1187 245.998 27.4795C246.339 23.8402 245.853 20.1655 244.581 16.7795H272.167C283.6 16.7798 294.565 21.7262 302.649 30.5308C310.734 39.3353 315.276 51.2768 315.276 63.7283Z" fill="white"/>
<path d="M112.715 176.604C143.889 176.604 169.161 149.081 169.161 115.129C169.161 81.1776 143.889 53.6544 112.715 53.6544C81.5404 53.6544 56.2685 81.1776 56.2685 115.129C56.2685 149.081 81.5404 176.604 112.715 176.604Z" fill="#FF6584"/>
<path d="M16.7468 549.713L14.926 661.263C14.926 687.656 36.0388 709.054 59.8465 709.054H272.167C295.975 709.054 317.097 687.656 317.097 661.263L315.276 550.693C208.235 505.506 109.256 508.34 16.7468 549.713Z" fill="#3DDCC7"/>
<path d="M193.472 74.9562L204.774 65.1119C195.994 64.057 192.386 69.2718 190.91 73.3993C184.051 70.2975 176.584 74.3626 176.584 74.3626L199.197 83.3029C198.056 79.9846 196.07 77.0892 193.472 74.9562Z" fill="#3F3D56"/>
</svg>
